# xmcd CD database file
#
# Track frame offsets:
#	150
#	18095
#	39602
#	53815
#	71875
#	85582
#	103522
#	119760
#	143125
#	153675
#	169575
#	181965
#	206447
#	218850
#	237532
#
# Disc length: 3439 seconds
#
# Revision: 0
# Processed by: cddbd v1.5.1PL0 Copyright (c) Steve Scherf et al.
# Submitted via: CDex 1.50Beta7
#
DISCID=d40d6d0f
DTITLE=Adam Levy and George Wyle - With My Guitar and You
DYEAR=2001
DGENRE=Jazz
TTITLE0=When I Fall in Love
TTITLE1=Autumn Leaves
TTITLE2=Wouldn't It Be Loverly
TTITLE3=Chopin Alley
TTITLE4=Sometime I'm Happy
TTITLE5=Moonlight Becomes You
TTITLE6=Taking a Chance on Love
TTITLE7=Shades of Old Havana
TTITLE8=Lullaby
TTITLE9=Up and Adam
TTITLE10=Walking My Baby Back Home
TTITLE11=Vibrations
TTITLE12=With My Guitar and You
TTITLE13=How About You
TTITLE14=That's All
EXTD=YEAR: 2001
EXTT0=
EXTT1=
EXTT2=
EXTT3=
EXTT4=
EXTT5=
EXTT6=
EXTT7=
EXTT8=
EXTT9=
EXTT10=
EXTT11=
EXTT12=
EXTT13=
EXTT14=
PLAYORDER=
